<?xml version="1.0" standalone="no"?>
<!DOCTYPE svg PUBLIC "-//W3C//DTD SVG 20010904//EN"
 "http://www.w3.org/TR/2001/REC-SVG-20010904/DTD/svg10.dtd">
<svg version="1.0" xmlns="http://www.w3.org/2000/svg"
 width="512.000000pt" height="512.000000pt" viewBox="0 0 512.000000 512.000000"
 preserveAspectRatio="xMidYMid meet">
<metadata>
Created by potrace 1.11, written by Peter Selinger 2001-2013
</metadata>
<g transform="translate(0.000000,512.000000) scale(0.100000,-0.100000)"
fill="#000000" stroke="none">
<path d="M2529 4423 c-30 -48 -58 -95 -64 -104 -27 -43 -109 -208 -122 -244
-64 -182 -87 -376 -88 -750 0 -180 3 -218 19 -268 37 -112 100 -146 168 -89
49 40 65 61 97 127 51 104 155 462 176 607 4 24 8 45 10 48 1 3 6 25 9 50 4
25 10 72 15 105 14 102 13 219 -4 291 -39 170 -107 314 -149 314 -7 0 -38 -39
-67 -87z"/>
<path d="M3858 4027 c-159 -106 -249 -198 -408 -417 -46 -63 -105 -140 -131
-170 -26 -30 -57 -77 -70 -105 -13 -27 -44 -86 -69 -130 -69 -120 -90 -170
-91 -217 -2 -56 12 -89 51 -121 38 -33 69 -41 117 -34 46 8 82 43 187 182 240
317 369 566 502 962 35 106 39 123 27 123 -5 -1 -56 -33 -115 -73z"/>
<path d="M1167 4028 c-44 -24 -68 -133 -62 -288 2 -63 6 -126 9 -140 7 -31 14
-68 20 -100 25 -147 143 -388 257 -525 70 -85 136 -118 234 -117 165 1 264
174 161 282 -28 30 -80 117 -244 410 -14 25 -45 78 -69 118 -24 41 -43 76 -43
78 0 2 -24 44 -54 92 -93 150 -165 215 -209 190z"/>
<path d="M437 3130 c-8 -31 -1 -146 13 -205 51 -222 193 -401 387 -483 209
-89 241 124 53 362 -99 126 -262 271 -354 315 -69 33 -92 36 -99 11z"/>
<path d="M4578 3085 c-2 -2 -25 -5 -53 -8 -194 -19 -389 -147 -596 -392 -19
-22 -37 -42 -40 -45 -4 -3 -9 -23 -12 -45 -5 -39 13 -104 30 -106 4 0 18 -2
31 -5 54 -10 199 65 582 299 278 171 331 211 308 232 -25 23 -238 82 -250 70z"/>
<path d="M2338 2675 c-2 -1 -32 -6 -66 -9 -293 -31 -596 -140 -858 -310 -118
-77 -171 -121 -280 -231 -153 -154 -214 -289 -169 -375 34 -66 117 -77 208
-30 49 25 210 139 227 160 13 16 234 179 306 226 184 119 427 216 599 240 22
3 60 10 85 15 79 15 394 3 500 -19 206 -43 433 -136 625 -257 94 -59 245 -170
305 -225 90 -82 124 -99 156 -76 24 18 20 76 -8 135 -37 78 -96 151 -222 276
-178 176 -364 294 -592 375 -49 17 -96 33 -104 36 -54 13 -264 55 -305 60 -52
6 -401 14 -407 9z"/>
<path d="M4564 2291 c-105 -29 -232 -109 -260 -162 -30 -58 4 -151 76 -212 42
-35 79 -35 171 4 86 36 187 74 349 130 97 34 122 47 158 84 67 69 51 114 -53
151 -72 26 -354 29 -441 5z"/>
<path d="M172 2098 c-90 -9 -162 -39 -162 -66 0 -24 131 -153 206 -204 142
-96 269 -83 416 39 31 27 72 57 90 68 53 33 48 97 -10 122 -91 40 -363 61
-540 41z"/>
</g>
</svg>
